<svg xmlns="http://www.w3.org/2000/svg" xmlns:xlink="http://www.w3.org/1999/xlink" viewBox="0 0 612 556"><defs><style>.cls-1{fill:none;}.cls-2{fill:#fff;}.cls-3{fill:url(#linear-gradient);}.cls-4{fill:url(#linear-gradient-2);}.cls-5{fill:url(#linear-gradient-3);}.cls-6,.cls-7,.cls-8,.cls-9{opacity:0.38;}.cls-6{fill:url(#linear-gradient-4);}.cls-7{fill:url(#linear-gradient-5);}.cls-8{fill:url(#linear-gradient-6);}.cls-9{fill:url(#linear-gradient-7);}.cls-10{fill:url(#linear-gradient-8);}</style><linearGradient id="linear-gradient" x1="434.39" y1="484.37" x2="-167.32" y2="461.23" gradientUnits="userSpaceOnUse"><stop offset="0" stop-color="#fb5e50"/><stop offset="1" stop-color="#f49d74"/></linearGradient><linearGradient id="linear-gradient-2" x1="432.22" y1="540.76" x2="-169.49" y2="517.62" xlink:href="#linear-gradient"/><linearGradient id="linear-gradient-3" x1="-544" y1="526.13" x2="560" y2="526.13" xlink:href="#linear-gradient"/><linearGradient id="linear-gradient-4" x1="18.33" y1="98.22" x2="-89.64" y2="94.06" xlink:href="#linear-gradient"/><linearGradient id="linear-gradient-5" x1="150.6" y1="221.91" x2="42.63" y2="217.76" xlink:href="#linear-gradient"/><linearGradient id="linear-gradient-6" x1="15.28" y1="177.67" x2="-92.7" y2="173.52" xlink:href="#linear-gradient"/><linearGradient id="linear-gradient-7" x1="152.1" y1="182.93" x2="44.13" y2="178.78" xlink:href="#linear-gradient"/><linearGradient id="linear-gradient-8" x1="599.32" y1="63.69" x2="548.72" y2="61.74" xlink:href="#linear-gradient"/></defs><g id="Layer_2" data-name="Layer 2"><g id="Layer_1-2" data-name="Layer 1"><path class="cls-1" d="M513,26.5A90,90,0,0,1,517,0H0V58.85A111.18,111.18,0,0,1,41.78,112.5a108.42,108.42,0,0,1,31.43-4.63C133.84,107.87,183,157.6,183,218.94S133.84,330,73.21,330A108.71,108.71,0,0,1,0,301.7v104C71,394.18,145.4,412,192.5,490.5c61-104,194-36,233,15,69-44,172-14,186.5,50.5V128.35C555.71,119.65,513,77.36,513,26.5Z"/><path class="cls-2" d="M612,556H560s-89.5-60.5-154.5-34.5c-51-33-111-2-206,8-69-47-124-36-185.5-16.62q-7.14-4.19-14-8V405.66C71,394.18,145.4,412,192.5,490.5c61-104,194-36,233,15C494.5,461.5,597.5,491.5,612,556Z"/><path class="cls-3" d="M612,556H560s-89.5-60.5-154.5-34.5c-51-33-111-2-206,8-69-47-124-36-185.5-16.62q-7.14-4.19-14-8V405.66C71,394.18,145.4,412,192.5,490.5c61-104,194-36,233,15C494.5,461.5,597.5,491.5,612,556Z"/><path class="cls-2" d="M560,556H0V504.88q6.86,3.83,14,8C75.5,493.5,130.5,482.5,199.5,529.5c95-10,155-41,206-8C470.5,495.5,560,556,560,556Z"/><path class="cls-4" d="M560,556H0V504.88q6.86,3.83,14,8C75.5,493.5,130.5,482.5,199.5,529.5c95-10,155-41,206-8C470.5,495.5,560,556,560,556Z"/><path class="cls-5" d="M560,556H0V504.88q6.86,3.83,14,8C75.5,493.5,130.5,482.5,199.5,529.5c95-10,155-41,206-8C470.5,495.5,560,556,560,556Z"/><path class="cls-2" d="M41.78,112.5A111.18,111.18,0,0,0,0,58.85v77.32A109.21,109.21,0,0,1,41.78,112.5Z"/><path class="cls-6" d="M41.78,112.5A111.18,111.18,0,0,0,0,58.85v77.32A109.21,109.21,0,0,1,41.78,112.5Z"/><path class="cls-2" d="M0,243.28V301.7A108.71,108.71,0,0,0,73.21,330C133.84,330,183,280.28,183,218.94S133.84,107.87,73.21,107.87a108.42,108.42,0,0,0-31.43,4.63,111.88,111.88,0,0,1,6.8,38.56A111.32,111.32,0,0,1,0,243.28Z"/><path class="cls-7" d="M0,243.28V301.7A108.71,108.71,0,0,0,73.21,330C133.84,330,183,280.28,183,218.94S133.84,107.87,73.21,107.87a108.42,108.42,0,0,0-31.43,4.63,111.88,111.88,0,0,1,6.8,38.56A111.32,111.32,0,0,1,0,243.28Z"/><path class="cls-2" d="M0,243.28a111.32,111.32,0,0,0,48.58-92.22,111.88,111.88,0,0,0-6.8-38.56A109.21,109.21,0,0,0,0,136.17Z"/><path class="cls-8" d="M0,243.28a111.32,111.32,0,0,0,48.58-92.22,111.88,111.88,0,0,0-6.8-38.56A109.21,109.21,0,0,0,0,136.17Z"/><path class="cls-9" d="M0,243.28a111.32,111.32,0,0,0,48.58-92.22,111.88,111.88,0,0,0-6.8-38.56A109.21,109.21,0,0,0,0,136.17Z"/><path class="cls-2" d="M517,0a90,90,0,0,0-4,26.5c0,50.86,42.71,93.15,99,101.85V0Z"/><path class="cls-10" d="M517,0a90,90,0,0,0-4,26.5c0,50.86,42.71,93.15,99,101.85V0Z"/></g></g></svg>