<svg xmlns="http://www.w3.org/2000/svg" xmlns:xlink="http://www.w3.org/1999/xlink" viewBox="0 0 612 556.5"><defs><style>.cls-1{fill:none;}.cls-2{fill:url(#linear-gradient);}.cls-3{fill:#fff;}.cls-4{fill:url(#linear-gradient-2);}.cls-5{fill:url(#linear-gradient-3);}.cls-6{fill:url(#linear-gradient-4);}.cls-7{fill:url(#linear-gradient-5);}.cls-8{fill:url(#linear-gradient-6);}.cls-9{fill:url(#linear-gradient-7);}.cls-10,.cls-11,.cls-12,.cls-13{opacity:0.38;}.cls-10{fill:url(#linear-gradient-8);}.cls-11{fill:url(#linear-gradient-9);}.cls-12{fill:url(#linear-gradient-10);}.cls-13{fill:url(#linear-gradient-11);}.cls-14{fill:url(#linear-gradient-12);}</style><linearGradient id="linear-gradient" x1="1042.15" y1="594.77" x2="440.43" y2="571.62" gradientUnits="userSpaceOnUse"><stop offset="0" stop-color="#fb5e50"/><stop offset="1" stop-color="#f49d74"/></linearGradient><linearGradient id="linear-gradient-2" x1="1046.87" y1="472" x2="445.15" y2="448.85" xlink:href="#linear-gradient"/><linearGradient id="linear-gradient-3" x1="1044.45" y1="534.85" x2="442.74" y2="511.71" xlink:href="#linear-gradient"/><linearGradient id="linear-gradient-4" x1="68" y1="556.28" x2="1172" y2="556.28" xlink:href="#linear-gradient"/><linearGradient id="linear-gradient-5" x1="68" y1="466.05" x2="1172" y2="466.05" xlink:href="#linear-gradient"/><linearGradient id="linear-gradient-6" x1="1044.33" y1="537.97" x2="442.62" y2="514.83" xlink:href="#linear-gradient"/><linearGradient id="linear-gradient-7" x1="68.37" y1="508.36" x2="1172.37" y2="508.36" xlink:href="#linear-gradient"/><linearGradient id="linear-gradient-8" x1="628.19" y1="154.04" x2="520.21" y2="149.89" xlink:href="#linear-gradient"/><linearGradient id="linear-gradient-9" x1="760.44" y1="278.2" x2="652.46" y2="274.04" xlink:href="#linear-gradient"/><linearGradient id="linear-gradient-10" x1="626.5" y1="197.97" x2="518.52" y2="193.82" xlink:href="#linear-gradient"/><linearGradient id="linear-gradient-11" x1="763.32" y1="203.23" x2="655.35" y2="199.08" xlink:href="#linear-gradient"/><linearGradient id="linear-gradient-12" x1="114.33" y1="66.61" x2="46.98" y2="64.02" xlink:href="#linear-gradient"/></defs><g id="Layer_2" data-name="Layer 2"><g id="Layer_1-2" data-name="Layer 1"><path class="cls-1" d="M219.5,513.27c108.43-60.47,159.7-62.1,225.39-36.78a184.59,184.59,0,0,1,35.69-2.11C516,448.21,563.19,425.81,612,417.68v-107a114.91,114.91,0,0,1-29.78-45.51,105.83,105.83,0,0,1-31.43,4.76C490.16,269.89,441,218.7,441,155.54S490.16,41.19,550.79,41.19A106.27,106.27,0,0,1,612,60.59V0H132a95.17,95.17,0,0,1,4,27.29c0,58.85-53.95,106.56-120.5,106.56A138.8,138.8,0,0,1,0,133V556S24.5,434,219.5,513.27Z"/><path class="cls-2" d="M0,556l68.33.06,0-.06Z"/><path class="cls-3" d="M612,504.88V405.66c-48.81,7.9-96,29.65-131.42,55.07C518.87,462.16,559.35,475.56,612,504.88Z"/><path class="cls-4" d="M612,504.88V405.66c-48.81,7.9-96,29.65-131.42,55.07C518.87,462.16,559.35,475.56,612,504.88Z"/><path class="cls-3" d="M281.5,525.5c68.4-32.33,116.61-55.71,163.39-62.73-65.69-24.58-117-23-225.39,35.73C24.5,421.5,0,540,0,540v16H68.37C73.21,549.72,126.47,486.5,281.5,525.5Z"/><path class="cls-5" d="M281.5,525.5c68.4-32.33,116.61-55.71,163.39-62.73-65.69-24.58-117-23-225.39,35.73C24.5,421.5,0,540,0,540v16H68.37C73.21,549.72,126.47,486.5,281.5,525.5Z"/><path class="cls-6" d="M68,556.5l350.21-.16-349.88-.28C68.11,556.34,68,556.5,68,556.5Z"/><path class="cls-3" d="M480.58,460.73a191.12,191.12,0,0,0-35.69,2c7,2.63,14.18,5.55,21.61,8.73Q473.17,466,480.58,460.73Z"/><path class="cls-7" d="M480.58,460.73a191.12,191.12,0,0,0-35.69,2c7,2.63,14.18,5.55,21.61,8.73Q473.17,466,480.58,460.73Z"/><path class="cls-3" d="M466.5,471.5c-7.43-3.18-14.6-6.1-21.61-8.73-46.78,7-95,30.4-163.39,62.73-155-39-208.29,24.22-213.13,30.5H612V504.88c-52.65-29.32-93.13-42.72-131.42-44.15Q473.18,466,466.5,471.5Z"/><path class="cls-8" d="M466.5,471.5c-7.43-3.18-14.6-6.1-21.61-8.73-46.78,7-95,30.4-163.39,62.73-155-39-208.29,24.22-213.13,30.5H612V504.88c-52.65-29.32-93.13-42.72-131.42-44.15Q473.18,466,466.5,471.5Z"/><path class="cls-9" d="M466.5,471.5c-7.43-3.18-14.6-6.1-21.61-8.73-46.78,7-95,30.4-163.39,62.73-155-39-208.29,24.22-213.13,30.5H612V504.88c-52.65-29.32-93.13-42.72-131.42-44.15Q473.18,466,466.5,471.5Z"/><path class="cls-3" d="M441,151.06c0,61.34,49.16,111.07,109.79,111.07a108.42,108.42,0,0,0,31.43-4.63A112.16,112.16,0,0,1,612,136.17V58.85A108.43,108.43,0,0,0,550.79,40C490.16,40,441,89.72,441,151.06Z"/><path class="cls-10" d="M441,151.06c0,61.34,49.16,111.07,109.79,111.07a108.42,108.42,0,0,0,31.43-4.63A112.16,112.16,0,0,1,612,136.17V58.85A108.43,108.43,0,0,0,550.79,40C490.16,40,441,89.72,441,151.06Z"/><path class="cls-3" d="M582.22,257.5A111.36,111.36,0,0,0,612,301.7V243.28A109,109,0,0,1,582.22,257.5Z"/><path class="cls-11" d="M582.22,257.5A111.36,111.36,0,0,0,612,301.7V243.28A109,109,0,0,1,582.22,257.5Z"/><path class="cls-3" d="M612,136.17A112.16,112.16,0,0,0,582.22,257.5,109,109,0,0,0,612,243.28Z"/><path class="cls-12" d="M612,136.17A112.16,112.16,0,0,0,582.22,257.5,109,109,0,0,0,612,243.28Z"/><path class="cls-13" d="M612,136.17A112.16,112.16,0,0,0,582.22,257.5,109,109,0,0,0,612,243.28Z"/><path class="cls-3" d="M136,26.5A90,90,0,0,0,132,0H0V129.15a141.26,141.26,0,0,0,15.5.85C82.05,130,136,83.66,136,26.5Z"/><path class="cls-14" d="M136,26.5A90,90,0,0,0,132,0H0V129.15a141.26,141.26,0,0,0,15.5.85C82.05,130,136,83.66,136,26.5Z"/></g></g></svg>